%TF.GenerationSoftware,KiCad,Pcbnew,10.0.1*%
%TF.CreationDate,2026-09-20T22:31:59-07:00*%
%TF.ProjectId,snoid-swt,736e6f69-642d-4737-9774-2e6b69636164,rev?*%
%TF.SameCoordinates,Original*%
%TF.FileFunction,Soldermask,Top*%
%TF.FilePolarity,Negative*%
%FSLAX46Y46*%
G04 Gerber Fmt 4.6, Leading zero omitted, Abs format (unit mm)*
G04 Created by KiCad (PCBNEW 10.0.1) date 2026-09-20 22:31:59*
%MOMM*%
%LPD*%
G01*
G04 APERTURE LIST*
G04 Aperture macros list*
%AMRoundRect*
0 Rectangle with rounded corners*
0 $1 Rounding radius*
0 $2 $3 $4 $5 $6 $7 $8 $9 X,Y pos of 4 corners*
0 Add a 4 corners polygon primitive as box body*
4,1,4,$2,$3,$4,$5,$6,$7,$8,$9,$2,$3,0*
0 Add four circle primitives for the rounded corners*
1,1,$1+$1,$2,$3*
1,1,$1+$1,$4,$5*
1,1,$1+$1,$6,$7*
1,1,$1+$1,$8,$9*
0 Add four rect primitives between the rounded corners*
20,1,$1+$1,$2,$3,$4,$5,0*
20,1,$1+$1,$4,$5,$6,$7,0*
20,1,$1+$1,$6,$7,$8,$9,0*
20,1,$1+$1,$8,$9,$2,$3,0*%
G04 Aperture macros list end*
%ADD10R,1.800000X1.800000*%
%ADD11C,1.800000*%
%ADD12C,1.000000*%
%ADD13C,1.600000*%
%ADD14R,2.000000X1.905000*%
%ADD15O,2.000000X1.905000*%
%ADD16C,2.010000*%
%ADD17C,3.200000*%
%ADD18RoundRect,0.152400X-0.609600X1.063600X-0.609600X-1.063600X0.609600X-1.063600X0.609600X1.063600X0*%
%ADD19C,1.524000*%
%ADD20RoundRect,0.152400X0.609600X-1.063600X0.609600X1.063600X-0.609600X1.063600X-0.609600X-1.063600X0*%
%ADD21R,3.500000X3.500000*%
%ADD22RoundRect,0.750000X-1.000000X0.750000X-1.000000X-0.750000X1.000000X-0.750000X1.000000X0.750000X0*%
%ADD23RoundRect,0.875000X-0.875000X0.875000X-0.875000X-0.875000X0.875000X-0.875000X0.875000X0.875000X0*%
%ADD24C,2.000000*%
%ADD25RoundRect,0.250000X1.050000X1.050000X-1.050000X1.050000X-1.050000X-1.050000X1.050000X-1.050000X0*%
%ADD26C,2.600000*%
%ADD27RoundRect,0.249999X-0.850001X-0.850001X0.850001X-0.850001X0.850001X0.850001X-0.850001X0.850001X0*%
%ADD28C,2.200000*%
G04 APERTURE END LIST*
D10*
%TO.C,D1*%
X119096250Y-88340000D03*
D11*
X116556250Y-88340000D03*
%TD*%
D12*
%TO.C,TP7*%
X116450000Y-81025000D03*
%TD*%
%TO.C,TP5*%
X142550000Y-84000000D03*
%TD*%
%TO.C,TP3*%
X142661250Y-57525000D03*
%TD*%
%TO.C,TP1*%
X125500000Y-65575000D03*
%TD*%
D10*
%TO.C,U2*%
X108310000Y-55610000D03*
D11*
X105770000Y-55610000D03*
X103230000Y-55610000D03*
%TD*%
D13*
%TO.C,C2*%
X120205000Y-71311099D03*
X120205000Y-73811099D03*
%TD*%
D14*
%TO.C,Q1*%
X143611250Y-67260000D03*
D15*
X143611250Y-64720000D03*
X143611250Y-62180000D03*
%TD*%
D16*
%TO.C,F1*%
X134660000Y-71320000D03*
X129560000Y-70120000D03*
%TD*%
D17*
%TO.C,m3-hole*%
X148500000Y-88000000D03*
%TD*%
D12*
%TO.C,TP2*%
X142661250Y-53800000D03*
%TD*%
D18*
%TO.C,U1*%
X95660000Y-80205000D03*
D19*
X95660000Y-79370000D03*
D18*
X98200000Y-80205000D03*
D19*
X98200000Y-79370000D03*
D18*
X100740000Y-80205000D03*
D19*
X100740000Y-79370000D03*
D18*
X103280000Y-80205000D03*
D19*
X103280000Y-79370000D03*
D18*
X105820000Y-80205000D03*
D19*
X105820000Y-79370000D03*
D18*
X108360000Y-80205000D03*
D19*
X108360000Y-79370000D03*
D18*
X110900000Y-80205000D03*
D19*
X110900000Y-79370000D03*
X110900000Y-64130000D03*
D20*
X110900000Y-63295000D03*
D19*
X108360000Y-64130000D03*
D20*
X108360000Y-63295000D03*
D19*
X105820000Y-64130000D03*
D20*
X105820000Y-63295000D03*
D19*
X103280000Y-64130000D03*
D20*
X103280000Y-63295000D03*
D19*
X100740000Y-64130000D03*
D20*
X100740000Y-63295000D03*
D19*
X98200000Y-64130000D03*
D20*
X98200000Y-63295000D03*
D19*
X95660000Y-64130000D03*
D20*
X95660000Y-63295000D03*
%TD*%
D21*
%TO.C,J2*%
X133400000Y-66200000D03*
D22*
X133400000Y-60200000D03*
D23*
X128700000Y-63200000D03*
%TD*%
D12*
%TO.C,TP6*%
X142600000Y-87725000D03*
%TD*%
D17*
%TO.C,m3-hole*%
X148500000Y-55500000D03*
%TD*%
D24*
%TO.C,SW1*%
X109800000Y-89050000D03*
X103300000Y-89050000D03*
X109800000Y-84550000D03*
X103300000Y-84550000D03*
%TD*%
D12*
%TO.C,TP4*%
X116420000Y-65010000D03*
%TD*%
D13*
%TO.C,R3*%
X127187500Y-84278582D03*
X137347500Y-84278582D03*
%TD*%
%TO.C,R4*%
X148450000Y-81960000D03*
X148450000Y-71800000D03*
%TD*%
D25*
%TO.C,J1*%
X122750000Y-57565000D03*
D26*
X117670000Y-57565000D03*
%TD*%
D14*
%TO.C,Q2*%
X143611250Y-78540000D03*
D15*
X143611250Y-76000000D03*
X143611250Y-73460000D03*
%TD*%
D17*
%TO.C,m3-hole*%
X96000000Y-55500000D03*
%TD*%
D13*
%TO.C,R1*%
X137347500Y-89050000D03*
X127187500Y-89050000D03*
%TD*%
D27*
%TO.C,D2*%
X126925000Y-75178582D03*
D28*
X137085000Y-75178582D03*
%TD*%
D17*
%TO.C,m3-hole*%
X96000000Y-88000000D03*
%TD*%
D13*
%TO.C,R2*%
X127112500Y-79728582D03*
X137272500Y-79728582D03*
%TD*%
M02*
