M48
; DRILL file KiCad 10.0.1 date 2026-09-20T22:31:55
; FORMAT={-:-/ absolute / metric / decimal}
; #@! TF.CreationDate,2026-09-20T22:31:55-07:00
; #@! TF.GenerationSoftware,Kicad,Pcbnew,10.0.1
; #@! TF.FileFunction,Plated,1,2,PTH
FMAT,2
METRIC
; #@! TA.AperFunction,Plated,PTH,ComponentDrill
T1C0.800
; #@! TA.AperFunction,Plated,PTH,ComponentDrill
T2C0.889
; #@! TA.AperFunction,Plated,PTH,ComponentDrill
T3C0.900
; #@! TA.AperFunction,Plated,PTH,ComponentDrill
T4C1.000
; #@! TA.AperFunction,Plated,PTH,ComponentDrill
T5C1.010
; #@! TA.AperFunction,Plated,PTH,ComponentDrill
T6C1.100
; #@! TA.AperFunction,Plated,PTH,ComponentDrill
T7C1.300
%
G90
G05
T1
X120.205Y-71.311
X120.205Y-73.811
X127.112Y-79.729
X127.188Y-84.279
X127.188Y-89.05
X137.273Y-79.729
X137.347Y-84.279
X137.347Y-89.05
X148.45Y-71.8
X148.45Y-81.96
T2
X95.66Y-64.13
X95.66Y-79.37
X98.2Y-64.13
X98.2Y-79.37
X100.74Y-64.13
X100.74Y-79.37
X103.28Y-64.13
X103.28Y-79.37
X105.82Y-64.13
X105.82Y-79.37
X108.36Y-64.13
X108.36Y-79.37
X110.9Y-64.13
X110.9Y-79.37
T3
X116.556Y-88.34
X119.096Y-88.34
T4
X103.23Y-55.61
X105.77Y-55.61
X108.31Y-55.61
T5
X129.56Y-70.12
X134.66Y-71.32
T6
X103.3Y-84.55
X103.3Y-89.05
X109.8Y-84.55
X109.8Y-89.05
X126.925Y-75.179
X137.085Y-75.179
X143.611Y-62.18
X143.611Y-64.72
X143.611Y-67.26
X143.611Y-73.46
X143.611Y-76.0
X143.611Y-78.54
T7
X117.67Y-57.565
X122.75Y-57.565
T4
G00X128.7Y-62.2
M15
G01X128.7Y-64.2
M16
G05
G00X134.4Y-60.2
M15
G01X132.4Y-60.2
M16
G05
G00X134.4Y-66.2
M15
G01X132.4Y-66.2
M16
G05
M30
